<svg xmlns="http://www.w3.org/2000/svg" width="67.556" height="56.472" viewBox="0 0 67.556 56.472">
  <g id="Group_4" data-name="Group 4" transform="translate(-220.454 -192.819)">
    <rect id="Rectangle_2" data-name="Rectangle 2" width="67.556" height="56.472" rx="7.653" transform="translate(220.454 192.819)" fill="#5e8a3f"/>
    <g id="Group_3" data-name="Group 3">
      <g id="Group_2" data-name="Group 2">
        <path id="Path_1" data-name="Path 1" d="M225.316,204.683a3.629,3.629,0,0,1,.716-.852q2.25-2.1,4.486-4.21a1.19,1.19,0,0,1,1.368-.377,1.108,1.108,0,0,1,.7,1.225c-.042.481.239.442.557.442,6.9,0,13.811.014,20.717-.009a20.208,20.208,0,0,1,12.01,3.722,1.3,1.3,0,0,1,.653.873,1.127,1.127,0,0,1-1.793,1.09,18.834,18.834,0,0,0-3.057-1.791,17.993,17.993,0,0,0-7.652-1.623q-11.036.02-22.072.006a1.621,1.621,0,0,1-1.268-.339c-.139-.14-.223-.059-.324.036-.685.645-1.366,1.294-2.06,1.928-.176.161-.147.252.01.4.678.624,1.348,1.257,2.018,1.891.131.125.224.217.4.032a1.271,1.271,0,0,1,.993-.3q4.233.008,8.467,0a1.223,1.223,0,0,1,1.287.706,1.189,1.189,0,0,1-.359,1.375,17.839,17.839,0,0,0,5.429,28.3,18.84,18.84,0,0,0,8.137,1.737c7.282-.019,14.564-.012,21.846-.018a1.57,1.57,0,0,1,1.215.326c.167.166.255.057.366-.048.671-.632,1.336-1.271,2.019-1.89.206-.186.142-.284-.024-.436q-1-.916-1.976-1.853c-.156-.15-.255-.213-.445-.02a1.115,1.115,0,0,1-.833.275q-4.347-.008-8.694,0a1.169,1.169,0,0,1-1.184-.69,1.139,1.139,0,0,1,.306-1.334,17.889,17.889,0,0,0,3.617-18.672c-.074-.193-.159-.381-.226-.576a1.131,1.131,0,0,1,.607-1.5,1.119,1.119,0,0,1,1.476.663,18.642,18.642,0,0,1,1.445,5.3,19.948,19.948,0,0,1-3.6,14.3c-.039.055-.07.116-.144.239,1.743,0,3.41,0,5.076,0,.25,0,.34-.086.319-.326a2.383,2.383,0,0,1,.005-.338,1.077,1.077,0,0,1,.644-.984,1.045,1.045,0,0,1,1.211.168c1.707,1.59,3.411,3.183,5.093,4.8a1.03,1.03,0,0,1-.02,1.562c-1.671,1.6-3.364,3.179-5.058,4.755a1.031,1.031,0,0,1-1.152.21.971.971,0,0,1-.7-.988c.06-.661-.253-.694-.783-.693q-10.3.025-20.6.009A19.845,19.845,0,0,1,239,234.23a20.1,20.1,0,0,1-1.372-24.6c.1-.151.209-.3.369-.535h-3.312c-.546,0-1.093.027-1.637-.009-.385-.026-.467.113-.467.472a1.113,1.113,0,0,1-.829,1.243,1.14,1.14,0,0,1-1.136-.322q-2.446-2.3-4.89-4.6a4.888,4.888,0,0,1-.414-.509Z" fill="#fff"/>
        <path id="Path_2" data-name="Path 2" d="M269.063,210.335a1.109,1.109,0,0,1-1.073-1.14,1.14,1.14,0,0,1,1.172-1.112,1.162,1.162,0,0,1,1.082,1.155A1.128,1.128,0,0,1,269.063,210.335Z" fill="#fff"/>
        <path id="Path_3" data-name="Path 3" d="M254.23,206.829a14.225,14.225,0,1,0,14.214,14.263A14.249,14.249,0,0,0,254.23,206.829Zm-.016,26.187a11.963,11.963,0,1,1,11.97-11.929A11.988,11.988,0,0,1,254.214,233.016Z" fill="#fff"/>
        <g id="Group_1" data-name="Group 1">
          <path id="Path_4" data-name="Path 4" d="M250.446,216.849c-.452,0-.78,0-1.067-.39a1.3,1.3,0,0,1-.226-.923v-1.148a1.3,1.3,0,0,1,.226-.923c.287-.39.615-.39,1.067-.39h1.476c.452,0,.78,0,1.067.39a1.307,1.307,0,0,1,.225.923v1.148a1.307,1.307,0,0,1-.225.923c-.287.39-.615.39-1.067.39Zm.43,10.276a1.1,1.1,0,0,1-1.456,0,1.172,1.172,0,0,1,0-1.457l8.143-10.624a1.072,1.072,0,0,1,1.456,0,1.172,1.172,0,0,1,0,1.456Zm5.64,1.907c-.451,0-.779,0-1.066-.39a1.307,1.307,0,0,1-.225-.923v-1.148a1.308,1.308,0,0,1,.225-.923c.287-.39.615-.39,1.066-.39h1.477c.452,0,.78,0,1.067.39a1.3,1.3,0,0,1,.226.923v1.148a1.3,1.3,0,0,1-.226.923c-.287.39-.615.39-1.067.39Z" fill="#fff"/>
        </g>
      </g>
    </g>
  </g>
</svg>
