<svg xmlns="http://www.w3.org/2000/svg" width="67.556" height="56.472" viewBox="0 0 67.556 56.472"><g transform="translate(-727.073 -570.152)"><rect width="67.556" height="56.472" rx="7.653" transform="translate(727.073 570.152)" fill="#5e8a3f"/><path d="M773.389,580.416c.975,0,1.95-.005,2.925,0a.913.913,0,0,0,.958-.677,1.974,1.974,0,0,0-.011-.543,1.03,1.03,0,0,0-.965-.66c-2.874.008-5.747,0-8.62,0H745.571a1.127,1.127,0,0,0-.6.115.419.419,0,0,0-.216.19l-.077.084a.822.822,0,0,0-.219.668.339.339,0,0,0,.013.064c.018.052.032.105.049.157a.5.5,0,0,0,.028.062.9.9,0,0,0,.884.552q1.392-.006,2.782,0a.457.457,0,0,1,.278.046,1.651,1.651,0,0,0-.35.854c-.068.257-.093.522-.139.782a12.992,12.992,0,0,0,.285,5.7.361.361,0,0,0,.018.064c.014.039.028.077.04.116a.513.513,0,0,0,.02.055c.038.106.073.213.1.321.006.018.012.036.019.053a3.121,3.121,0,0,1,.139.43.661.661,0,0,0,.122.293,1.552,1.552,0,0,1,.172.343.459.459,0,0,0,.026.049,4.1,4.1,0,0,1,.259.554.179.179,0,0,0,.059.1.255.255,0,0,1,.118.137,5.63,5.63,0,0,0,.56.922.362.362,0,0,0,.032.045.914.914,0,0,1,.075.112.341.341,0,0,0,.032.043,2.086,2.086,0,0,1,.2.293.4.4,0,0,0,.052.065c.1.109.188.223.276.34a.461.461,0,0,0,.036.041c.09.129.211.233.295.366a.354.354,0,0,0,.037.041,1.6,1.6,0,0,1,.259.315.422.422,0,0,0,.06.06,1.316,1.316,0,0,1,.15.14c.526.584,1.081,1.14,1.627,1.7a4.322,4.322,0,0,1,.421.476.418.418,0,0,0,.059.06.525.525,0,0,1,.162.176.358.358,0,0,0,.033.043,4.629,4.629,0,0,1,.531.662,5.238,5.238,0,0,1,.591,1.009,3.559,3.559,0,0,1-.15,3.357,4.854,4.854,0,0,1-.448.661.539.539,0,0,0-.035.045,4.054,4.054,0,0,1-.3.371.509.509,0,0,0-.039.041c-.2.239-.417.468-.616.71a7.822,7.822,0,0,0-.612.736l-.164.2a.991.991,0,0,0-.249.319l-.081.094a.34.34,0,0,0-.125.162l-.037.044a4.219,4.219,0,0,0-.7.992l-.045.081a3.089,3.089,0,0,0-.533.908.837.837,0,0,0-.191.264c-.125.249-.23.507-.349.757a2.006,2.006,0,0,0-.2.512.757.757,0,0,0-.122.291h0c-.1.051-.042.166-.09.239h0a.077.077,0,0,0-.032.086l-.012.038a2.3,2.3,0,0,0-.246.657c-.047.032-.021.086-.036.127a.741.741,0,0,0-.122.419c-.093.077-.043.2-.082.289a.18.18,0,0,0-.043.065,4.377,4.377,0,0,0-.208.876,6.326,6.326,0,0,0-.247,1.337.67.67,0,0,0-.045.273c-.06.082-.014.177-.036.264l-.006.066c-.051.1.008.2-.037.3l-.009.111c-.041.083,0,.175-.032.259l.008.016-.01.013c-.064.163-.005.336-.04.5-.043.041-.034.093-.039.147a4.221,4.221,0,0,1,0,.636.176.176,0,0,0-.027.134q.009.5,0,.99a.684.684,0,0,0,.241.644.068.068,0,0,1,.033.087c-.017.035-.055.036-.089.038-.055,0-.11,0-.165,0-1.032,0-2.063,0-3.095,0a.714.714,0,0,0-.572.166.349.349,0,0,0-.251.245.867.867,0,0,0-.1.892.763.763,0,0,0,.571.507,1.156,1.156,0,0,0,.327.023h30.69a1.731,1.731,0,0,0,.288,0c.254-.045.518-.083.643-.361h0l0,0h0a.78.78,0,0,0,.223-.7.394.394,0,0,0-.017-.068.942.942,0,0,0-1.055-.726c-.982,0-1.964,0-2.946,0a.5.5,0,0,1-.164-.008c-.04-.015-.015-.042,0-.064a.875.875,0,0,0,.066-.081.991.991,0,0,0,.17-.58c0-.541,0-1.081-.005-1.622a.462.462,0,0,0-.008-.074c-.046-.316-.05-.636-.078-.955a.315.315,0,0,0-.013-.068c-.028-.2-.062-.39-.072-.588a.331.331,0,0,0-.015-.062.273.273,0,0,1-.055-.2.382.382,0,0,0,.005-.059,1.241,1.241,0,0,1-.02-.2.42.42,0,0,0-.015-.086.812.812,0,0,1-.025-.176.483.483,0,0,0-.017-.092c-.123-.629-.262-1.254-.436-1.872a.461.461,0,0,0-.019-.06c-.069-.206-.125-.416-.193-.622-.006-.018-.013-.037-.02-.055q-.083-.233-.158-.467c-.019-.046-.032-.095-.086-.113-.038-.021-.033-.054-.028-.088a.048.048,0,0,0,.019-.046,1.721,1.721,0,0,1-.068-.2c-.005-.017-.011-.034-.017-.051-.064-.187-.157-.364-.223-.551a.466.466,0,0,0-.023-.051,2.99,2.99,0,0,1-.184-.4c-.007-.018-.014-.035-.022-.051-.026-.048-.049-.1-.072-.147-.016-.034-.032-.067-.049-.1-.092-.184-.185-.368-.277-.553a.178.178,0,0,0-.084-.072h0a1.717,1.717,0,0,0-.23-.476.453.453,0,0,0-.03-.046.682.682,0,0,1-.071-.112c-.008-.016-.016-.032-.025-.047-.082-.133-.173-.261-.247-.4a.468.468,0,0,0-.032-.045c-.087-.12-.178-.238-.255-.365l-.032-.045c-.089-.127-.189-.245-.275-.373a.624.624,0,0,0-.05-.065c-.074-.1-.16-.193-.231-.3a.344.344,0,0,0-.032-.043.876.876,0,0,1-.1-.13.46.46,0,0,0-.033-.044c-.133-.143-.258-.293-.376-.448a.383.383,0,0,0-.034-.045c-.1-.109-.2-.229-.3-.333a4.011,4.011,0,0,0-.576-.6h0a.337.337,0,0,0-.1-.172c-.192-.237-.408-.454-.577-.71-.07-.093-.135-.19-.2-.285a3.57,3.57,0,0,1-.629-2.651,4.421,4.421,0,0,1,.748-1.8,2.1,2.1,0,0,0,.188-.337,1.059,1.059,0,0,0,.255-.321h0a4.833,4.833,0,0,0,.7-.788c.256-.144.387-.409.584-.61l0,0a2.747,2.747,0,0,0,.608-.628.245.245,0,0,0,.154-.1c.171-.241.412-.419.59-.653.082-.108.207-.183.246-.323.1-.032.124-.126.17-.2a.48.48,0,0,0,.208-.247,8.59,8.59,0,0,0,.685-.837.61.61,0,0,0,.058-.152h0a.612.612,0,0,0,.246-.375c.017-.046.027-.1.076-.124a.15.15,0,0,0,.084-.057,5.464,5.464,0,0,0,.543-1.053h0a1.487,1.487,0,0,0,.285-.627c-.005-.031-.006-.061.026-.081a2.246,2.246,0,0,0,.341-.951l0,.005a1.5,1.5,0,0,0,.167-.429c.016-.238.1-.461.138-.7a5.8,5.8,0,0,0,.194-1.607l.005-.07a.325.325,0,0,0,.042-.237,7.127,7.127,0,0,1,.008-1.159.213.213,0,0,0-.047-.172l-.006-.112a3.345,3.345,0,0,0-.078-1.065c-.068-.448-.182-.888-.246-1.338a.668.668,0,0,0-.218-.449c0-.074-.086-.116-.088-.19A.338.338,0,0,1,773.389,580.416Zm-1.418,5.434a10.116,10.116,0,0,1-2.231,5.065c-.778.964-1.668,1.826-2.517,2.725a10.458,10.458,0,0,0-1.9,2.505,5.462,5.462,0,0,0,.481,5.986c.592.822,1.3,1.548,1.954,2.317a14.987,14.987,0,0,1,3.165,6.427,18.808,18.808,0,0,1,.488,4.128c0,.2,0,.4,0,.6,0,.3.052.423.357.812H749.948c-.023-.042.015-.061.037-.082a.933.933,0,0,0,.3-.739,19.163,19.163,0,0,1,.882-6.134,15.319,15.319,0,0,1,3.411-5.751,13,13,0,0,0,1.608-2.01,5.46,5.46,0,0,0,.027-5.847,12.572,12.572,0,0,0-2.041-2.528,30.673,30.673,0,0,1-2.471-2.739,9.975,9.975,0,0,1-2.034-5.292,11.88,11.88,0,0,1,.31-3.8.958.958,0,0,0-.277-1.03.209.209,0,0,1-.028-.058h22.347c-.012.029-.015.051-.027.062a.983.983,0,0,0-.266,1.054A11.561,11.561,0,0,1,771.971,585.85Z" fill="#fff"/><path d="M749.881,607.781l-.007-.008.007.009h0Z" fill="#fff"/><path d="M768.1,602.048l.01-.011-.01.01h0Z" fill="#fff"/><path d="M771.029,605.966l.01,0-.012,0h0Z" fill="#fff"/><path d="M777.011,617.871l.007.006-.006-.008h0Z" fill="#fff"/><path d="M766.982,589.363l-1.311,1.358a7.216,7.216,0,0,1-.87.787l0,0c-.193.217-.457.354-.648.574a10.357,10.357,0,0,1-1.679,1.074,5.582,5.582,0,0,1-1.351.506,2.331,2.331,0,0,1-1.127-.174,7.8,7.8,0,0,1-1.721-.948.356.356,0,0,1-.071-.074c-.523-.4-1.044-.8-1.535-1.235-.614-.548-1.2-1.128-1.752-1.734-.041-.045-.087-.086-.131-.128a2.967,2.967,0,0,1-.5-.579h0a1.89,1.89,0,0,1-.369-.457v0a.934.934,0,0,1-.129-.164h0a5.512,5.512,0,0,1-.511-.658c-.251-.341-.48-.7-.726-1.043a.924.924,0,0,1-.081-.164,1.146,1.146,0,0,1-.163-1.116.369.369,0,0,1,.074-.117,1.377,1.377,0,0,1,.2-.2,1.206,1.206,0,0,1,.719-.2q7.6,0,15.193,0a1.081,1.081,0,0,1,.877.416.858.858,0,0,1,.08.978,7.748,7.748,0,0,1-.681,1.065,7.409,7.409,0,0,0-.505.717c-.267.331-.527.667-.8.99-.091.1-.188.184-.271.287v0A1.034,1.034,0,0,1,766.982,589.363Z" fill="#fff"/><path d="M759.932,600.273a.947.947,0,0,1,.958-.951.961.961,0,0,1-.017,1.921A.948.948,0,0,1,759.932,600.273Z" fill="#fff"/><path d="M760.032,597.408a1.187,1.187,0,0,1-.194-1.272,1.147,1.147,0,1,1,.342,1.382l-.148-.11Z" fill="#fff"/><path d="M760.321,604.01a.679.679,0,0,1,.205-.643c.416-.191.786-.072.9.289a.571.571,0,0,1-1.039.46Z" fill="#fff"/></g></svg>